<svg width="13" height="13" viewBox="0 0 13 13" xmlns="http://www.w3.org/2000/svg">
                            <path d="M0.723125 0H12.285C12.6831 0 13 0.316875 13 0.715V12.285C13 12.675 12.6831 13 12.285 13H8.97V7.9625H10.66L10.9119 6.00438H8.97V4.75312C8.97 4.18437 9.1325 3.79437 9.945 3.79437H10.985V2.03938C10.8063 2.015 10.1888 1.96625 9.47375 1.96625C7.97062 1.96625 6.94688 2.87625 6.94688 4.55813V6.00438H5.24875V7.9625H6.94688V13H0.723125C0.53274 13 0.350031 12.9249 0.21465 12.7911C0.0792686 12.6572 0.00213916 12.4754 0 12.285V0.715C0 0.316875 0.325 0 0.723125 0Z"></path>
                        </svg>