<svg width="20" height="19" viewBox="0 0 20 19" fill="none" xmlns="http://www.w3.org/2000/svg">
<path d="M12.5 12.625C12.5 12.9703 12.2203 13.25 11.875 13.25H8.125C7.77969 13.25 7.5 12.9703 7.5 12.625V10.75H0V16.375C0 17.375 0.875 18.25 1.875 18.25H18.125C19.125 18.25 20 17.375 20 16.375V10.75H12.5V12.625ZM18.125 4.5H15V2.625C15 1.625 14.125 0.75 13.125 0.75H6.875C5.875 0.75 5 1.625 5 2.625V4.5H1.875C0.875 4.5 0 5.375 0 6.375V9.5H20V6.375C20 5.375 19.125 4.5 18.125 4.5ZM12.5 4.5H7.5V3.25H12.5V4.5Z" fill="#201E1E"/>
</svg>
