<svg width="13" height="13" viewBox="0 0 13 13" xmlns="http://www.w3.org/2000/svg">
                            <path d="M8.69375 6.5C8.69375 5.28125 7.71875 4.30625 6.5 4.30625C5.28125 4.30625 4.30625 5.28125 4.30625 6.5C4.30625 7.71875 5.28125 8.69375 6.5 8.69375C7.71875 8.69375 8.69375 7.71875 8.69375 6.5ZM9.83125 6.5C9.83125 8.36875 8.36875 9.83125 6.5 9.83125C4.63125 9.83125 3.16875 8.36875 3.16875 6.5C3.16875 4.63125 4.63125 3.16875 6.5 3.16875C8.36875 3.16875 9.83125 4.63125 9.83125 6.5ZM10.725 3.00625C10.725 3.49375 10.4 3.81875 9.9125 3.81875C9.425 3.81875 9.1 3.49375 9.1 3.00625C9.1 2.51875 9.425 2.19375 9.9125 2.19375C10.4 2.19375 10.725 2.6 10.725 3.00625ZM6.5 1.1375C5.525 1.1375 3.49375 1.05625 2.68125 1.38125C2.1125 1.625 1.625 2.1125 1.4625 2.68125C1.1375 3.49375 1.21875 5.525 1.21875 6.5C1.21875 7.475 1.1375 9.50625 1.4625 10.3187C1.625 10.8875 2.1125 11.375 2.68125 11.5375C3.49375 11.8625 5.60625 11.7812 6.5 11.7812C7.39375 11.7812 9.50625 11.8625 10.3187 11.5375C10.8875 11.2938 11.2938 10.8875 11.5375 10.3187C11.8625 9.425 11.7812 7.39375 11.7812 6.5C11.7812 5.60625 11.8625 3.49375 11.5375 2.68125C11.375 2.1125 10.8875 1.625 10.3187 1.4625C9.50625 1.05625 7.475 1.1375 6.5 1.1375ZM13 6.5V9.18125C13 10.1562 12.675 11.1313 11.9438 11.9438C11.2125 12.675 10.2375 13 9.18125 13H3.81875C2.84375 13 1.86875 12.675 1.05625 11.9438C0.40625 11.2125 0 10.2375 0 9.18125V6.5V3.81875C0 2.7625 0.40625 1.7875 1.05625 1.05625C1.86875 0.40625 2.84375 0 3.81875 0H9.18125C10.1562 0 11.1313 0.325 11.9438 1.05625C12.5938 1.7875 13 2.7625 13 3.81875V6.5Z"></path>
                        </svg>