<svg width="144" height="48" viewBox="0 0 144 48" fill="none" xmlns="http://www.w3.org/2000/svg">
<path d="M14.4945 4.9685V0.119427H36.7514V33.1745H30.2787L30.2824 30.0789H33.8068V3.21507H17.439V4.9685H28.5854V47.8806H0V4.9685H14.4945ZM5.56907 44.5497H25.1777V33.1745H16.935L5.56907 44.5497ZM14.4945 31.0971V10.516H17.6431V29.8747H25.1777V8.29934H3.40771V42.1929L14.4945 31.0971Z" fill="#FBB255"/>
<path d="M49.647 21.542V8.17892H53.181C53.4945 8.17892 53.8114 8.18916 54.1352 8.20958C54.4589 8.23007 54.7724 8.25737 55.0792 8.29835C55.3858 8.33925 55.679 8.38697 55.9652 8.445C56.2515 8.49952 56.5173 8.56772 56.7559 8.64961C57.4681 8.87471 58.0952 9.18162 58.6439 9.56705C59.1892 9.95248 59.6457 10.4095 60.0138 10.9348C60.3853 11.46 60.6648 12.0501 60.8556 12.6981C61.043 13.3462 61.1385 14.0521 61.1385 14.8092C61.1385 15.5289 61.0601 16.2042 60.8999 16.8318C60.7398 17.4628 60.4977 18.0358 60.1706 18.5542C59.8435 19.0761 59.4345 19.533 58.9369 19.9287C58.4394 20.3244 57.8532 20.6483 57.1751 20.9042C56.6094 21.1156 55.9652 21.2759 55.2496 21.3816C54.5305 21.4874 53.7194 21.542 52.8231 21.542H49.647ZM53.1094 19.4956C54.5374 19.4956 55.6551 19.2977 56.4593 18.9056C57.1717 18.5542 57.71 18.0391 58.0748 17.3673C58.4394 16.6953 58.6233 15.8359 58.6233 14.7888C58.6233 14.2431 58.5621 13.752 58.4428 13.3121C58.3234 12.872 58.1496 12.4797 57.9248 12.1387C57.6998 11.7943 57.4238 11.501 57.1035 11.2554C56.7798 11.0064 56.415 10.8052 56.0095 10.6448C55.6313 10.4983 55.2087 10.3925 54.7452 10.3243C54.2783 10.2594 53.7569 10.2253 53.1776 10.2253H52.1006V19.4956H53.1094ZM63.7353 21.542V8.17892H66.189V21.542H63.7353ZM75.9389 17.6981C75.9389 17.3605 75.8573 17.0842 75.6903 16.8762C75.5234 16.6647 75.2985 16.4942 75.0119 16.3611C74.726 16.2247 74.4058 16.119 74.0512 16.0337C73.6966 15.9519 73.3219 15.87 72.9336 15.7916C72.4156 15.6757 71.9177 15.5426 71.4474 15.3857C70.9772 15.2288 70.5614 15.0105 70.2036 14.7343C69.8457 14.458 69.5595 14.1067 69.3482 13.6804C69.1335 13.254 69.0278 12.722 69.0278 12.0807C69.0278 11.3747 69.1505 10.7608 69.3993 10.2355C69.6446 9.7137 69.9821 9.28063 70.4046 8.93603C70.8306 8.59502 71.3248 8.33926 71.8976 8.16875C72.4665 7.9981 73.1069 7.91291 73.8191 7.91291C74.5319 7.91291 75.2476 7.98112 75.9662 8.12096C76.6854 8.26081 77.3023 8.44156 77.8238 8.65978V10.7574C77.1318 10.4846 76.4669 10.2868 75.83 10.1639C75.196 10.0412 74.5964 9.97971 74.0376 9.97971C73.233 9.97971 72.6126 10.1264 72.177 10.4197C71.7407 10.713 71.5224 11.1531 71.5224 11.7397C71.5224 12.0807 71.5939 12.3604 71.7372 12.5822C71.8804 12.8004 72.071 12.9811 72.3167 13.1244C72.5617 13.2676 72.8447 13.3836 73.165 13.4723C73.4816 13.5575 73.8191 13.636 74.1773 13.711C74.7432 13.8305 75.2813 13.9703 75.7928 14.1271C76.3072 14.2807 76.7635 14.4989 77.1626 14.7786C77.558 15.0617 77.8747 15.4232 78.1068 15.8734C78.3382 16.3237 78.4543 16.9 78.4543 17.5992C78.4543 18.3188 78.321 18.943 78.0552 19.4682C77.7894 19.9935 77.4112 20.4301 76.9204 20.7746C76.4333 21.1156 75.8401 21.3715 75.1416 21.5385C74.4395 21.7057 73.6765 21.7876 72.8447 21.7876C72.119 21.7876 71.4032 21.7159 70.7011 21.5726C69.999 21.4294 69.4164 21.2282 68.9494 20.9689V18.9021C69.6106 19.1885 70.2512 19.3966 70.8783 19.5263C71.5019 19.6559 72.1498 19.7206 72.8139 19.7206C73.1994 19.7206 73.5805 19.69 73.9523 19.6252C74.3241 19.5638 74.658 19.4546 74.9539 19.3011C75.2505 19.1477 75.489 18.9397 75.6696 18.6736C75.8508 18.4109 75.9389 18.0869 75.9389 17.6981ZM87.6932 9.97971C87.0284 9.97971 86.4115 10.0889 85.8491 10.3106C85.2868 10.5289 84.8068 10.8494 84.4041 11.269C83.9986 11.6885 83.6856 12.2069 83.4606 12.8243C83.2321 13.4416 83.1196 14.1475 83.1196 14.9389C83.1196 15.7267 83.222 16.4191 83.4298 17.016C83.634 17.6129 83.9306 18.1108 84.3189 18.5099C84.7043 18.9089 85.1743 19.2125 85.7302 19.4171C86.2854 19.6183 86.9159 19.7206 87.6216 19.7206C88.1288 19.7206 88.6439 19.6832 89.1683 19.6046C89.697 19.5297 90.1878 19.4171 90.6477 19.2704V21.3612C90.1806 21.4942 89.6798 21.5965 89.1411 21.675C88.5995 21.75 88.0407 21.7876 87.4611 21.7876C86.3299 21.7876 85.3348 21.6272 84.4758 21.3033C83.6204 20.9792 82.9011 20.5222 82.3222 19.9321C81.7462 19.3421 81.3099 18.636 81.0205 17.8141C80.7303 16.9922 80.5842 16.0814 80.5842 15.0889C80.5842 14.0692 80.7411 13.1244 81.0506 12.2513C81.3608 11.3782 81.8078 10.621 82.3939 9.98315C82.9763 9.34195 83.7056 8.8406 84.5818 8.47229C85.4573 8.10728 86.4488 7.91972 87.5535 7.91291C88.1188 7.91291 88.6539 7.95045 89.1619 8.02546C89.6662 8.10384 90.1226 8.20958 90.5281 8.34943V10.4095C89.9965 10.2492 89.4993 10.1401 89.0394 10.0753C88.5823 10.0105 88.1324 9.97971 87.6932 9.97971ZM103.025 14.8502C103.025 14.0351 102.926 13.3256 102.725 12.7151C102.527 12.1046 102.252 11.5964 101.897 11.1906C101.546 10.7847 101.127 10.4811 100.643 10.2799C100.159 10.0787 99.6273 9.97971 99.0484 9.97971C98.4689 9.97971 97.9373 10.0787 97.453 10.2799C96.9694 10.4811 96.5503 10.7847 96.1992 11.1906C95.8446 11.5964 95.5688 12.1046 95.3711 12.7151C95.1697 13.3256 95.0709 14.0351 95.0709 14.8502C95.0709 15.662 95.1697 16.3747 95.3711 16.9853C95.5688 17.5958 95.8446 18.1006 96.1992 18.5064C96.5503 18.9089 96.9694 19.2125 97.453 19.4171C97.9373 19.6183 98.4689 19.7206 99.0484 19.7206C99.6273 19.7206 100.159 19.6183 100.643 19.4171C101.127 19.2125 101.546 18.9089 101.897 18.5064C102.252 18.1006 102.527 17.5958 102.725 16.9853C102.926 16.3747 103.025 15.662 103.025 14.8502ZM105.561 14.8502C105.561 15.87 105.417 16.8045 105.128 17.6538C104.838 18.503 104.412 19.2363 103.856 19.8468C103.301 20.4608 102.62 20.9383 101.809 21.2793C101.001 21.6171 100.081 21.7876 99.0484 21.7876C98.0154 21.7876 97.0955 21.6171 96.2874 21.2793C95.4764 20.9383 94.7951 20.4608 94.2398 19.8468C93.6839 19.2363 93.2612 18.503 92.9718 17.6538C92.6823 16.8045 92.5355 15.87 92.5355 14.8502C92.5355 13.8305 92.6823 12.896 92.9718 12.0466C93.2612 11.1973 93.6839 10.4642 94.2398 9.85355C94.7951 9.23965 95.4764 8.76208 96.2874 8.42107C97.0955 8.08342 98.0154 7.91291 99.0484 7.91291C100.081 7.91291 101.001 8.08342 101.809 8.42107C102.62 8.76208 103.301 9.23965 103.856 9.85355C104.412 10.4642 104.838 11.1973 105.128 12.0466C105.417 12.896 105.561 13.8305 105.561 14.8502ZM112.901 18.2745C113.147 17.5515 113.324 17.033 113.436 16.7226C113.545 16.4123 113.777 15.778 114.128 14.8195L116.606 8.17892H119.192L113.968 21.542H111.773L106.552 8.17892H109.156L111.634 14.8195C111.985 15.778 112.216 16.4123 112.325 16.7226C112.438 17.033 112.615 17.5515 112.86 18.2745H112.901ZM123.438 19.4956H130.009V21.542H120.985V8.17892H129.648V10.2253H123.438V13.6838H128.772V15.7302H123.438V19.4956ZM142.472 12.1933C142.472 13.1244 142.213 13.9123 141.698 14.5638C141.184 15.2118 140.386 15.6926 139.305 16.0064V16.044L143.31 21.542H140.366L136.729 16.3646H135.049V21.542H132.595V8.17892H136.655C137.329 8.17892 137.953 8.21646 138.532 8.29491C139.111 8.36992 139.606 8.48583 140.018 8.63936C140.802 8.93603 141.409 9.38293 141.834 9.96954C142.261 10.5596 142.472 11.2996 142.472 12.1933ZM136.252 14.3182C136.811 14.3182 137.285 14.2943 137.673 14.2431C138.062 14.192 138.386 14.1169 138.651 14.018C139.142 13.8339 139.483 13.5781 139.674 13.254C139.861 12.9334 139.957 12.5616 139.957 12.1421C139.957 11.7841 139.881 11.4634 139.732 11.1872C139.582 10.9109 139.33 10.6961 138.972 10.5356C138.74 10.4266 138.447 10.3515 138.096 10.3004C137.745 10.2492 137.309 10.2253 136.791 10.2253H135.049V14.3182H136.252Z" fill="#FFF"/>
<path d="M49.647 39.8414V26.4784H52.1006V39.8414H49.647ZM62.2529 32.6893C63.2104 34.0569 63.9909 35.2677 64.5907 36.325H64.6486C64.5702 34.589 64.5293 33.3236 64.5293 32.5289V26.4784H66.983V39.8414H64.4169L60.0582 33.6885C59.2914 32.6244 58.5007 31.3898 57.6794 29.9845H57.6215C57.6999 31.6217 57.7408 32.8905 57.7408 33.7875V39.8414H55.2871V26.4784H57.8532L62.2529 32.6893ZM75.1179 36.574C75.3629 35.851 75.5406 35.3324 75.6531 35.0221C75.762 34.7117 75.9934 34.0774 76.3444 33.1189L78.8225 26.4784H81.4088L76.1847 39.8414H73.9896L68.7689 26.4784H71.3725L73.8499 33.1189C74.2009 34.0774 74.433 34.7117 74.5419 35.0221C74.6544 35.3324 74.8314 35.851 75.0771 36.574H75.1179ZM85.655 37.7951H92.2253V39.8414H83.2013V26.4784H91.8642V28.5248H85.655V31.9833H90.9887V34.0296H85.655V37.7951ZM101.376 35.9976C101.376 35.6599 101.294 35.3837 101.127 35.1756C100.96 34.9641 100.735 34.7936 100.449 34.6606C100.162 34.5242 99.8422 34.4184 99.4876 34.3332C99.1337 34.2514 98.7583 34.1695 98.37 34.091C97.852 33.9751 97.3541 33.842 96.8841 33.6852C96.4142 33.5282 95.9979 33.31 95.6404 33.0337C95.2822 32.7575 94.9964 32.4062 94.785 31.9798C94.5701 31.5535 94.4648 31.0215 94.4648 30.3802C94.4648 29.6742 94.5873 29.0603 94.8359 28.535C95.0816 28.0132 95.4191 27.5801 95.841 27.2355C96.2673 26.8945 96.7616 26.6387 97.334 26.4682C97.9029 26.2976 98.5441 26.2124 99.2562 26.2124C99.9683 26.2124 100.684 26.2806 101.403 26.4204C102.122 26.5603 102.739 26.741 103.26 26.9592V29.0568C102.568 28.784 101.904 28.5862 101.266 28.4634C100.633 28.3406 100.033 28.2792 99.474 28.2792C98.6702 28.2792 98.0498 28.4259 97.6135 28.7192C97.1772 29.0125 96.9594 29.4525 96.9594 30.0391C96.9594 30.3802 97.0303 30.6599 97.1736 30.8816C97.3169 31.0998 97.5074 31.2806 97.7532 31.4239C97.9982 31.5671 98.2812 31.683 98.6014 31.7718C98.9188 31.857 99.2562 31.9355 99.6137 32.0105C100.18 32.1299 100.718 32.2698 101.229 32.4266C101.744 32.5801 102.201 32.7983 102.599 33.078C102.994 33.3611 103.311 33.7227 103.543 34.1728C103.775 34.6231 103.891 35.1995 103.891 35.8986C103.891 36.6183 103.758 37.2424 103.492 37.7677C103.226 38.293 102.848 38.7296 102.357 39.074C101.87 39.4151 101.277 39.6709 100.578 39.838C99.8766 40.0051 99.1129 40.087 98.2812 40.087C97.5554 40.087 96.8397 40.0154 96.1376 39.8721C95.4355 39.7289 94.8531 39.5276 94.386 39.2684V37.2016C95.0472 37.488 95.6877 37.696 96.3153 37.8257C96.9386 37.9553 97.5862 38.0201 98.2504 38.0201C98.6358 38.0201 99.0176 37.9894 99.3887 37.9247C99.7606 37.8633 100.094 37.7541 100.391 37.6005C100.688 37.4472 100.926 37.2391 101.107 36.973C101.287 36.7104 101.376 36.3864 101.376 35.9976ZM112.094 39.8414H109.64V28.5248H105.326V26.4784H116.398V28.5248H112.094V39.8414Z" fill="#FFF"/>
</svg>
