<svg width="11" height="12" viewBox="0 0 11 12" fill="none" xmlns="http://www.w3.org/2000/svg">
<path d="M5.5 11.5C4.4122 11.5 3.34884 11.1774 2.44437 10.5731C1.5399 9.96874 0.834947 9.10975 0.418665 8.10476C0.00238306 7.09977 -0.106535 5.9939 0.105683 4.92701C0.317902 3.86011 0.841726 2.8801 1.61091 2.11091C2.3801 1.34173 3.36011 0.817902 4.42701 0.605683C5.4939 0.393465 6.59977 0.502383 7.60476 0.918665C8.60975 1.33495 9.46874 2.0399 10.0731 2.94437C10.6774 3.84884 11 4.9122 11 6C11 7.45869 10.4205 8.85764 9.38909 9.88909C8.35764 10.9205 6.95869 11.5 5.5 11.5ZM5.5 1.28572C4.5676 1.28572 3.65615 1.5622 2.88089 2.08022C2.10563 2.59823 1.50138 3.3345 1.14457 4.19592C0.787757 5.05735 0.694399 6.00523 0.8763 6.91971C1.0582 7.83419 1.50719 8.6742 2.1665 9.3335C2.8258 9.99281 3.66581 10.4418 4.58029 10.6237C5.49477 10.8056 6.44266 10.7122 7.30408 10.3554C8.1655 9.99862 8.90177 9.39438 9.41979 8.61912C9.9378 7.84386 10.2143 6.9324 10.2143 6C10.2143 4.7497 9.7176 3.5506 8.8335 2.6665C7.9494 1.7824 6.75031 1.28572 5.5 1.28572Z" fill="#201E1E"/>
<path d="M7.303 8.35721L5.10693 6.16114V2.46436H5.89265V5.83507L7.85693 7.80328L7.303 8.35721Z" fill="#201E1E"/>
</svg>
