<svg width="15" height="13" viewBox="0 0 15 13" xmlns="http://www.w3.org/2000/svg">
                            <path d="M13.4589 3.03633C13.4689 3.16991 13.4689 3.30272 13.4689 3.43553C13.4689 7.5 10.3753 12.1835 4.72166 12.1835C2.97985 12.1835 1.36169 11.679 0 10.8027C0.247303 10.831 0.485447 10.8409 0.742673 10.8409C2.1265 10.8442 3.47113 10.3815 4.55984 9.52727C3.91824 9.51566 3.29629 9.30398 2.78081 8.92179C2.26534 8.5396 1.88209 8.00598 1.68456 7.39543C1.87462 7.42367 2.06544 7.44275 2.26542 7.44275C2.54096 7.44275 2.81803 7.40459 3.07526 7.33818C2.37896 7.1976 1.75285 6.82018 1.30339 6.27011C0.853931 5.72004 0.608864 5.03128 0.609862 4.32093V4.28277C1.01974 4.51099 1.49527 4.65372 1.99903 4.67281C1.57701 4.39237 1.23096 4.01182 0.991761 3.56513C0.752564 3.11843 0.627656 2.61947 0.62818 2.11276C0.62818 1.54183 0.780073 1.01822 1.04646 0.561775C1.819 1.51208 2.78254 2.28951 3.87467 2.84372C4.9668 3.39794 6.16316 3.71658 7.38627 3.77901C7.33895 3.55002 7.30994 3.31264 7.30994 3.0745C7.30974 2.67069 7.38913 2.27081 7.54357 1.8977C7.698 1.52459 7.92446 1.18559 8.20999 0.900052C8.49553 0.614519 8.83454 0.388061 9.20764 0.233624C9.58075 0.0791871 9.98063 -0.000200269 10.3844 3.79399e-07C11.2698 3.79399e-07 12.069 0.370955 12.6308 0.970894C13.3191 0.837791 13.9791 0.586522 14.5817 0.228221C14.3523 0.938695 13.8717 1.54114 13.23 1.92271C13.8404 1.85308 14.437 1.69254 15 1.44642C14.5795 2.05941 14.0585 2.59695 13.4589 3.03633Z"></path>
                        </svg>