<svg width="15" height="11" viewBox="0 0 15 11" xmlns="http://www.w3.org/2000/svg">
                            <path d="M14.6949 1.65109C14.6095 1.33436 14.4427 1.04552 14.211 0.813306C13.9793 0.581093 13.6908 0.413608 13.3743 0.327524C12.2006 0.00525183 7.50519 5.69335e-06 7.50519 5.69335e-06C7.50519 5.69335e-06 2.81051 -0.00524075 1.63609 0.302791C1.31976 0.392837 1.03189 0.56269 0.800109 0.796043C0.568331 1.0294 0.400432 1.31841 0.31253 1.63535C0.00299911 2.80902 1.09808e-06 5.2433 1.09808e-06 5.2433C1.09808e-06 5.2433 -0.00299677 7.68957 0.304286 8.85124C0.476664 9.49354 0.982556 10.0009 1.6256 10.1741C2.81126 10.4963 7.49395 10.5016 7.49395 10.5016C7.49395 10.5016 12.1894 10.5068 13.363 10.1995C13.6797 10.1136 13.9684 9.94651 14.2007 9.71477C14.433 9.48303 14.6007 9.19468 14.6874 8.87823C14.9976 7.70531 14.9999 5.27178 14.9999 5.27178C14.9999 5.27178 15.0149 2.82476 14.6949 1.65109ZM6.00325 7.49845L6.007 3.00163L9.90949 5.25379L6.00325 7.49845Z"></path>
                        </svg>